<svg width="701" height="219" viewBox="0 0 701 219" fill="none" xmlns="http://www.w3.org/2000/svg">
<g clip-path="url(#clip0_202_2)">
<path d="M139.77 34H148.49C150.683 34.42 152.87 34.7967 155.05 35.13C178.6 38.78 197.95 53.16 209.73 73.7C209.363 73.9933 209.203 74.44 209.25 75.04C209.249 75.0623 209.241 75.0838 209.227 75.1009C209.212 75.118 209.193 75.1298 209.171 75.1344C209.149 75.139 209.126 75.1361 209.106 75.1263C209.086 75.1164 209.07 75.1001 209.06 75.08C209.007 74.96 208.96 74.84 208.92 74.72C208.833 74.4733 208.66 74.38 208.4 74.44C207.007 74.7933 205.69 74.72 204.45 74.22C202.53 73.4533 201.403 73.05 201.07 73.01C199.59 72.8233 198.04 72.8133 196.42 72.98C185.8 58.2467 171.54 49.3333 153.64 46.24C151.9 45.94 149.97 46.08 148.08 45.82C146.233 45.5667 144.857 45.4567 143.95 45.49C122.243 46.2033 105.1 54.96 92.52 71.76L84.39 71.53C84.1167 71.5167 83.85 71.56 83.59 71.66C82.2633 72.14 80.7933 72.1867 79.18 71.8C92.8067 49.54 113.003 36.94 139.77 34Z" fill="#FF8B04"/>
<path d="M189.8 79.68C189.227 81.5533 188.263 83.0167 186.91 84.07C185.61 85.08 184.4 84.64 182.92 85.34C182.653 85.46 182.417 85.42 182.21 85.22L182.02 85.04C181.66 84.6867 181.37 84.7367 181.15 85.19L179.06 89.47C178.893 89.81 178.627 89.94 178.26 89.86L174.21 88.97C173.91 88.9033 173.877 88.7733 174.11 88.58L174.48 88.29C176.27 88.24 180.82 88.74 180.49 85.53C180.17 82.45 175.75 83.72 173.64 83C173.38 82.9133 173.25 82.7333 173.25 82.46L173.24 79.21C173.24 78.8722 173.131 78.5428 172.93 78.27C171.65 76.53 170.12 76.33 168.34 77.67C168.204 77.7692 168.092 77.8994 168.014 78.0503C167.936 78.2012 167.893 78.3689 167.89 78.54L167.85 82.53C167.847 82.7086 167.775 82.879 167.647 83.0044C167.52 83.1298 167.349 83.2 167.17 83.2L162.73 83.23L159.6 82.61C159.308 82.5516 159.006 82.5902 158.74 82.72C156.84 83.6667 154.843 84.09 152.75 83.99C139.79 83.35 126.83 83.17 113.87 82.5C112.677 82.44 111.677 82.1133 110.87 81.52C108.47 79.78 107.35 77.63 108.72 74.73C109.507 73.0767 109.193 71.69 107.78 70.57C107.493 70.3433 107.423 70.0633 107.57 69.73L108.24 68.26C115.833 61.4533 125.087 57.1067 136 55.22C138.547 54.78 140.5 54.5 142 54.5C142.5 54.5 142.5 54.5 143 54.5C145.278 54.5 146.57 54.7 148.64 54.81C150.593 54.9167 151.807 55.0167 152.28 55.11C168.133 58.23 180.64 66.42 189.8 79.68Z" fill="#FF7D05"/>
<path d="M108.24 68.26L107.57 69.73C107.423 70.0633 107.493 70.3433 107.78 70.57C109.193 71.69 109.507 73.0767 108.72 74.73C107.35 77.63 108.47 79.78 110.87 81.52C111.677 82.1133 112.677 82.44 113.87 82.5C126.83 83.17 139.79 83.35 152.75 83.99C154.843 84.09 156.84 83.6667 158.74 82.72C159.006 82.5902 159.308 82.5516 159.6 82.61L162.73 83.23C161.67 83.4967 161.027 84.3133 160.8 85.68C160.746 85.9953 160.762 86.3186 160.846 86.6272C160.93 86.9357 161.081 87.2221 161.288 87.4661C161.495 87.7101 161.753 87.9059 162.043 88.0396C162.334 88.1733 162.65 88.2417 162.97 88.24H167.47C167.79 88.24 167.943 88.4 167.93 88.72L167.8 91.23C167.787 91.4913 167.846 91.7508 167.97 91.98C170.09 95.83 174.21 92.73 173.1 88.91C173.078 88.8384 173.074 88.7627 173.087 88.689C173.1 88.6152 173.131 88.5454 173.177 88.4852C173.223 88.425 173.282 88.3759 173.35 88.3421C173.418 88.3082 173.494 88.2903 173.57 88.29H174.48L174.11 88.58C173.877 88.7733 173.91 88.9033 174.21 88.97L178.26 89.86C178.627 89.94 178.893 89.81 179.06 89.47L181.15 85.19C181.37 84.7367 181.66 84.6867 182.02 85.04L182.21 85.22C182.417 85.42 182.653 85.46 182.92 85.34C184.4 84.64 185.61 85.08 186.91 84.07C188.263 83.0167 189.227 81.5533 189.8 79.68C193.567 85.6467 196.223 92.0467 197.77 98.88C197.863 99.3067 197.967 100.413 198.08 102.2C198.18 103.83 198.86 105.05 198.84 106.62C198.793 110.267 198.477 114.013 197.89 117.86C193.743 117.973 189.607 117.463 185.48 116.33C185.087 116.223 184.89 116.373 184.89 116.78L184.88 117.61H184.87L184.86 117.34C184.86 117.12 184.757 116.973 184.55 116.9C184.383 116.847 184.233 116.86 184.1 116.94C184.32 106 170.69 103.45 165.27 112.16L163.77 113.09C163.45 113.29 163.24 113.57 163.14 113.93L162.62 115.74C162.533 116.073 162.403 116.09 162.23 115.79C161.863 115.15 161.467 115.02 161.04 115.4C160.82 115.593 160.563 115.703 160.27 115.73L153.95 116.38C153.717 116.4 153.517 116.493 153.35 116.66L153.02 116.99C152.8 117.21 152.653 117.17 152.58 116.87C152.547 116.75 152.52 116.597 152.5 116.41C158.6 111.37 159.75 103.08 155.2 96.74C150.21 89.79 138.07 89.86 133.11 96.27C130.45 99.71 129.55 103.727 130.41 108.32C131.67 115.053 136.573 118.73 145.12 119.35L140.29 120.35C139.97 120.417 139.66 120.39 139.36 120.27C136.627 119.17 133.767 118.493 130.78 118.24C130.5 118.22 130.247 118.127 130.02 117.96C128.72 117.053 127.317 116.643 125.81 116.73C125.47 116.75 125.22 116.907 125.06 117.2L124.76 117.76C124.62 118.033 124.517 118.02 124.45 117.72L124.09 116.11C123.903 115.263 123.683 115.253 123.43 116.08C123.31 116.487 123.227 117.037 123.18 117.73C123.93 103.59 102.89 103.72 103.73 117.7C103.55 117.727 103.407 117.497 103.3 117.01C103.187 116.443 102.9 116.34 102.44 116.7C101.64 117.327 100.823 117.08 99.99 115.96C99.926 115.877 99.8409 115.812 99.7435 115.772C99.6461 115.733 99.5399 115.72 99.4359 115.735C99.3319 115.751 99.2339 115.793 99.152 115.859C99.07 115.925 99.0072 116.012 98.97 116.11C98.85 116.457 98.5733 116.523 98.14 116.31C97.8933 116.183 97.7233 115.987 97.63 115.72C96.78 113.18 93.16 110.44 91.1 108.6C90.8667 108.393 90.7967 108.14 90.89 107.84L91.21 106.8C91.2302 106.734 91.2273 106.664 91.2018 106.6C91.1764 106.537 91.1298 106.484 91.07 106.45L90.75 106.28C90.6986 106.251 90.6408 106.236 90.5819 106.235C90.523 106.235 90.465 106.249 90.4131 106.277C90.3613 106.305 90.3173 106.346 90.2853 106.395C90.2533 106.445 90.2343 106.501 90.23 106.56C90.21 106.853 90.12 107.083 89.96 107.25C89.7467 107.47 89.6367 107.427 89.63 107.12C89.6233 106.84 89.5467 106.727 89.4 106.78C90.46 91.18 96.74 78.34 108.24 68.26Z" fill="#FF6906"/>
<path d="M92.52 71.76C88.98 77.0933 86.38 81.9233 84.72 86.25C81.9133 93.5767 80.6733 101.323 81 109.49C80.78 108.69 80.0933 108.727 78.94 109.6C78.7067 109.773 78.4533 109.813 78.18 109.72L74.83 108.51C74.6819 108.457 74.549 108.369 74.4427 108.255C74.3364 108.14 74.26 108.001 74.22 107.85L73.79 106.27C73.7167 106.01 73.5467 105.84 73.28 105.76L70.49 104.98C70.41 104.96 70.3433 104.98 70.29 105.04L70 105.33C69.8267 105.497 69.6867 105.473 69.58 105.26L69 104.08V103.3C69 101 69.5417 98.6058 70.21 95.96C70.7 94.02 70.98 91.85 71.49 90.08C73.3033 83.7733 75.8667 77.68 79.18 71.8C80.7933 72.1867 82.2633 72.14 83.59 71.66C83.85 71.56 84.1167 71.5167 84.39 71.53L92.52 71.76Z" fill="#FF6906"/>
<path d="M209.73 73.7C214.857 82.9267 217.947 92.92 219 103.68V113.12C218.273 119.04 217.077 124.763 215.41 130.29C215.297 130.663 215.09 130.727 214.79 130.48C211.47 127.72 208.66 128.01 205.28 126.96C204.907 126.847 204.773 126.6 204.88 126.22C205.54 123.787 206.103 121.347 206.57 118.9C206.683 118.307 206.78 116.863 206.86 114.57C206.94 112.51 207.77 110.73 207.55 108.79C207.33 106.89 207.163 104.993 207.05 103.1C206.41 92.36 202.39 81.92 196.42 72.98C198.04 72.8133 199.59 72.8233 201.07 73.01C201.403 73.05 202.53 73.4533 204.45 74.22C205.69 74.72 207.007 74.7933 208.4 74.44C208.66 74.38 208.833 74.4733 208.92 74.72C208.96 74.84 209.007 74.96 209.06 75.08C209.07 75.1001 209.086 75.1164 209.106 75.1263C209.126 75.1361 209.149 75.139 209.171 75.1344C209.193 75.1298 209.212 75.118 209.227 75.1009C209.241 75.0838 209.249 75.0623 209.25 75.04C209.203 74.44 209.363 73.9933 209.73 73.7Z" fill="#FF6906"/>
<path d="M69 104.08L69.58 105.26C69.6867 105.473 69.8267 105.497 70 105.33L70.29 105.04C70.3433 104.98 70.41 104.96 70.49 104.98L73.28 105.76C73.5467 105.84 73.7167 106.01 73.79 106.27L74.22 107.85C74.26 108.001 74.3364 108.14 74.4427 108.255C74.549 108.37 74.6819 108.457 74.83 108.51L78.18 109.72C78.4533 109.813 78.7067 109.773 78.94 109.6C80.0933 108.727 80.78 108.69 81 109.49C80.7133 119.423 82.51 128.363 86.39 136.31C94.35 152.617 106.877 163.55 123.97 169.11C128.403 170.55 133.173 171.477 138.28 171.89C143.593 172.31 148.487 172.247 152.96 171.7C157.913 171.087 163.557 169.513 169.89 166.98C170.203 166.86 170.51 166.88 170.81 167.04C176.31 169.98 182.41 169.27 187.55 169.24C188.13 169.233 188.18 169.393 187.7 169.72C177.08 176.787 166.177 181.11 154.99 182.69C138.223 185.063 122.537 182.197 107.93 174.09C102.043 170.823 96.7033 166.867 91.91 162.22C78.6033 149.313 70.9667 133.063 69 113.47V104.08Z" fill="#FF530A"/>
<path d="M103.73 117.7C105.7 129.17 120.45 129.15 123.18 117.73C123.227 117.037 123.31 116.487 123.43 116.08C123.683 115.253 123.903 115.263 124.09 116.11L124.45 117.72C124.517 118.02 124.62 118.033 124.76 117.76L125.06 117.2C125.22 116.907 125.47 116.75 125.81 116.73C127.317 116.643 128.72 117.053 130.02 117.96C130.247 118.127 130.5 118.22 130.78 118.24C133.767 118.493 136.627 119.17 139.36 120.27C139.66 120.39 139.97 120.417 140.29 120.35L145.12 119.35L152.5 116.41C152.52 116.597 152.547 116.75 152.58 116.87C152.653 117.17 152.8 117.21 153.02 116.99L153.35 116.66C153.517 116.493 153.717 116.4 153.95 116.38L160.27 115.73C160.563 115.703 160.82 115.593 161.04 115.4C161.467 115.02 161.863 115.15 162.23 115.79C162.403 116.09 162.533 116.073 162.62 115.74L163.14 113.93C163.24 113.57 163.45 113.29 163.77 113.09L165.27 112.16C159.33 128.33 183.66 131.88 184.1 116.94C184.233 116.86 184.383 116.847 184.55 116.9C184.757 116.973 184.86 117.12 184.86 117.34L184.87 117.61H184.88L184.89 116.78C184.89 116.373 185.087 116.223 185.48 116.33C189.607 117.463 193.743 117.973 197.89 117.86L194.04 129.95C193.507 131.617 194.113 132.457 195.86 132.47C199.75 132.49 204.88 131.81 208.48 133.6C213.913 136.287 217.42 140.833 219 147.24V150.46C218.013 155.813 215.663 159.673 211.95 162.04C210.717 162.827 209.123 163.22 207.17 163.22C197.643 163.24 188.13 163.243 178.63 163.23C177.09 163.23 175.763 162.887 174.65 162.2C173.39 161.427 172.213 160.54 171.12 159.54C170.88 159.327 170.72 159.06 170.64 158.74C170.373 157.733 169.743 157.417 168.75 157.79C162.45 160.157 157.803 161.647 154.81 162.26C144.537 164.367 134.547 163.497 124.84 159.65C105.627 152.037 94.01 138.06 89.99 117.72C89.39 114.68 89.1933 111.033 89.4 106.78C89.5467 106.727 89.6233 106.84 89.63 107.12C89.6367 107.427 89.7467 107.47 89.96 107.25C90.12 107.083 90.21 106.853 90.23 106.56C90.2343 106.501 90.2533 106.445 90.2853 106.395C90.3173 106.346 90.3613 106.305 90.4131 106.277C90.465 106.249 90.523 106.235 90.5819 106.235C90.6408 106.236 90.6986 106.251 90.75 106.28L91.07 106.45C91.1298 106.484 91.1764 106.537 91.2018 106.6C91.2273 106.664 91.2302 106.734 91.21 106.8L90.89 107.84C90.7967 108.14 90.8667 108.393 91.1 108.6C93.16 110.44 96.78 113.18 97.63 115.72C97.7233 115.987 97.8933 116.183 98.14 116.31C98.5733 116.523 98.85 116.457 98.97 116.11C99.0072 116.012 99.07 115.925 99.152 115.859C99.2339 115.793 99.3319 115.751 99.4359 115.735C99.5399 115.72 99.6461 115.733 99.7435 115.772C99.8409 115.812 99.926 115.877 99.99 115.96C100.823 117.08 101.64 117.327 102.44 116.7C102.9 116.34 103.187 116.443 103.3 117.01C103.407 117.497 103.55 117.727 103.73 117.7ZM164.56 134.1C153 123.35 134.8 123.63 123.32 134.17C123.093 134.377 122.837 134.417 122.55 134.29C115.763 131.117 109.34 131.63 103.28 135.83C102.927 136.077 102.887 136.363 103.16 136.69L107.66 142.09C107.893 142.363 108.19 142.5 108.55 142.5C138.79 142.493 169.033 142.497 199.28 142.51C201.28 142.51 202.813 142.927 203.88 143.76C208.43 147.32 206.57 153.61 201.77 155.91C201.629 155.977 201.514 156.087 201.44 156.225C201.367 156.362 201.339 156.519 201.362 156.674C201.384 156.828 201.455 156.971 201.565 157.082C201.674 157.193 201.816 157.266 201.97 157.29C204.76 157.73 208.19 157.92 210.32 155.71C211.507 154.47 212.17 153.073 212.31 151.52C212.877 144.86 210.623 140.62 205.55 138.8C203.91 138.213 200.833 137.94 196.32 137.98C193.287 138.007 190.247 137.967 187.2 137.86C186.84 137.847 186.527 137.717 186.26 137.47C180.173 131.817 173.22 130.74 165.4 134.24C165.087 134.38 164.807 134.333 164.56 134.1ZM189.39 149.78C189.39 148.849 189.02 147.956 188.362 147.298C187.704 146.64 186.811 146.27 185.88 146.27C184.949 146.27 184.056 146.64 183.398 147.298C182.74 147.956 182.37 148.849 182.37 149.78C182.37 150.711 182.74 151.604 183.398 152.262C184.056 152.92 184.949 153.29 185.88 153.29C186.811 153.29 187.704 152.92 188.362 152.262C189.02 151.604 189.39 150.711 189.39 149.78Z" fill="#FF530A"/>
</g>
<path d="M276.783 74.3553H302.033V86.9801H281.833L281.517 87.6114L298.351 118.332C301.787 124.504 303.506 129.203 303.506 132.429C303.506 139.513 301.156 144.704 296.457 148H268.577V135.796H290.355L290.67 135.165L271.733 101.183C268.998 96.2734 267.63 92.2755 267.63 89.1895C267.63 81.8951 270.681 76.9504 276.783 74.3553ZM341.781 148H318.846C311.832 141.477 308.325 132.57 308.325 121.278C308.325 115.596 309.097 110.652 310.64 106.443C312.253 102.235 314.778 98.1671 318.215 94.2394H342.833C346.48 98.4477 348.97 102.551 350.303 106.549C351.635 110.476 352.302 115.386 352.302 121.278C352.302 132.57 348.795 141.477 341.781 148ZM326.316 136.953H334.311C336.836 132.044 338.099 126.468 338.099 120.225C338.099 113.983 336.801 109.003 334.206 105.286H326.316C323.791 108.863 322.528 113.948 322.528 120.541C322.528 127.064 323.791 132.535 326.316 136.953ZM372.879 120.646C372.879 123.592 373.335 126.608 374.246 129.694C375.158 132.71 376.421 135.13 378.034 136.953H393.815V148H370.775C362.498 141.407 358.36 132.289 358.36 120.646C358.36 109.003 362.779 100.201 371.616 94.2394H393.815V105.286H378.034C374.597 108.863 372.879 113.983 372.879 120.646ZM400.827 148V94.2394H414.714V148H400.827ZM400.827 74.3553H414.714V88.5582H400.827V74.3553ZM449.093 123.697H437.836C436.363 125.521 435.626 127.8 435.626 130.536C435.626 133.271 436.398 135.41 437.941 136.953H449.093V123.697ZM426.473 94.2394H452.565C456.773 96.7644 459.543 99.6751 460.876 102.972C462.209 106.198 462.875 110.617 462.875 116.228V132.009C462.875 137.83 463.015 143.16 463.296 148H451.302L449.408 144.213C446.673 146.738 442.815 148 437.836 148H431.208C425.246 144.072 422.265 138.426 422.265 131.062C422.265 123.627 425.316 117.771 431.418 113.492H441.307C444.043 113.492 446.603 114.334 448.988 116.017V110.757C448.988 108.021 447.795 106.198 445.411 105.286H426.473V94.2394ZM485.811 74.3553V148H471.923V74.3553H485.811ZM495.361 148V74.3553H509.774V135.796H531.657V148H495.361ZM563.649 123.697H552.392C550.919 125.521 550.182 127.8 550.182 130.536C550.182 133.271 550.954 135.41 552.497 136.953H563.649V123.697ZM541.029 94.2394H567.121C571.329 96.7644 574.099 99.6751 575.432 102.972C576.765 106.198 577.431 110.617 577.431 116.228V132.009C577.431 137.83 577.571 143.16 577.852 148H565.858L563.964 144.213C561.229 146.738 557.372 148 552.392 148H545.764C539.802 144.072 536.821 138.426 536.821 131.062C536.821 123.627 539.872 117.771 545.974 113.492H555.864C558.599 113.492 561.159 114.334 563.544 116.017V110.757C563.544 108.021 562.351 106.198 559.967 105.286H541.029V94.2394ZM586.48 74.3553H600.367V98.0268C601.91 96.6241 603.348 95.6421 604.68 95.081C606.083 94.5199 608.152 94.2394 610.887 94.2394H619.304C622.25 97.115 624.564 100.832 626.248 105.391C627.931 109.95 628.773 114.965 628.773 120.436C628.773 132.149 625.266 141.337 618.252 148H608.257C604.821 148 601.945 146.702 599.63 144.107L597.737 148H586.48V74.3553ZM600.472 136.953H610.572C613.167 132.535 614.464 127.169 614.464 120.857C614.464 114.544 613.132 109.354 610.467 105.286H600.472V136.953Z" fill="#121212"/>
<defs>
<clipPath id="clip0_202_2">
<rect width="150" height="150" fill="white" transform="translate(69 34)"/>
</clipPath>
</defs>
</svg>
